<?xml version="1.0" standalone="no"?>
<!DOCTYPE svg PUBLIC "-//W3C//DTD SVG 20010904//EN"
 "http://www.w3.org/TR/2001/REC-SVG-20010904/DTD/svg10.dtd">
<svg version="1.0" xmlns="http://www.w3.org/2000/svg"
  viewBox="0 0 840.000000 795.000000"
 preserveAspectRatio="xMidYMid meet">
<metadata>
Created by potrace 1.16, written by Peter Selinger 2001-2019
</metadata>
<g transform="translate(0.000000,795.000000) scale(0.100000,-0.100000)"
fill="#000000" stroke="none">
<path d="M2550 7353 c-361 -64 -583 -298 -692 -728 -84 -337 -74 -836 27
-1272 12 -52 13 -68 3 -74 -7 -4 -69 -27 -138 -50 -638 -215 -1119 -558 -1295
-924 -85 -176 -104 -351 -60 -530 89 -360 419 -688 960 -954 166 -82 277 -128
441 -184 95 -32 95 -32 91 -62 -2 -16 -16 -96 -31 -176 -56 -310 -72 -670 -41
-910 48 -369 177 -639 380 -794 367 -281 936 -197 1573 232 134 90 268 192
373 285 37 32 71 58 76 58 5 0 56 -41 114 -90 569 -493 1146 -723 1574 -630
429 94 685 525 711 1200 9 223 -13 470 -67 752 -11 59 -18 112 -15 117 4 5 50
24 104 42 128 42 310 118 444 185 505 253 826 566 922 897 36 124 42 221 21
332 -38 203 -129 362 -314 545 -248 246 -613 454 -1071 610 -69 24 -126 44
-127 45 -2 0 8 57 21 126 131 684 73 1272 -157 1614 -92 137 -241 260 -368
305 -357 124 -810 13 -1309 -322 -131 -88 -288 -209 -404 -311 l-88 -78 -42
36 c-493 424 -913 647 -1337 709 -127 19 -167 19 -279 -1z m3375 -157 c264
-84 430 -324 507 -734 19 -101 22 -153 23 -377 0 -143 -3 -287 -7 -320 -20
-159 -32 -233 -64 -390 -19 -94 -34 -177 -34 -185 0 -11 41 -28 138 -58 753
-237 1285 -631 1387 -1027 19 -76 19 -224 0 -300 -73 -289 -373 -584 -830
-817 -158 -80 -412 -185 -580 -238 -55 -17 -101 -33 -103 -34 -1 -2 6 -42 17
-89 30 -128 59 -300 76 -449 19 -170 19 -509 0 -648 -65 -486 -269 -777 -595
-846 -96 -20 -270 -14 -396 15 -338 77 -728 306 -1117 657 l-128 115 -76 -68
c-427 -384 -820 -614 -1203 -704 -127 -30 -334 -32 -430 -5 -258 74 -430 274
-515 601 -40 153 -50 258 -49 505 0 287 19 455 88 773 15 66 24 123 21 127 -3
5 -20 12 -38 15 -17 4 -81 24 -142 45 -926 315 -1468 849 -1346 1330 36 142
91 243 200 369 232 268 691 527 1216 686 72 22 111 38 113 48 2 9 -10 78 -27
154 -96 436 -114 875 -47 1194 93 445 336 679 706 679 395 0 911 -258 1401
-702 60 -54 111 -98 114 -98 4 0 62 50 129 111 435 391 879 638 1236 690 102
15 267 3 355 -25z"/>
<path d="M2600 6907 c-147 -33 -241 -146 -298 -357 -41 -153 -47 -208 -47
-455 1 -295 10 -365 97 -782 6 -29 15 -53 19 -53 5 0 49 9 97 19 166 37 507
91 740 118 152 17 154 17 175 48 26 37 190 258 197 265 3 3 49 59 102 126 53
66 144 174 202 240 l106 119 -37 35 c-494 462 -1057 744 -1353 677z m255 -157
c241 -58 571 -251 879 -515 l56 -47 -23 -27 c-12 -15 -76 -93 -143 -172 -66
-79 -164 -202 -218 -274 -54 -71 -106 -139 -116 -151 -14 -17 -33 -22 -100
-28 -110 -9 -392 -50 -568 -82 -79 -14 -146 -24 -148 -21 -9 9 -42 191 -59
327 -24 183 -24 518 0 650 29 168 95 303 162 339 51 27 171 27 278 1z"/>
<path d="M5530 6900 c-262 -64 -593 -255 -900 -519 -120 -103 -200 -178 -200
-187 1 -5 21 -31 46 -59 149 -165 376 -447 512 -636 l62 -86 148 -17 c221 -27
445 -62 655 -102 103 -20 189 -35 191 -33 10 10 57 248 75 374 57 405 44 733
-39 968 -58 165 -131 257 -233 296 -74 27 -209 28 -317 1z m270 -136 c58 -23
113 -104 149 -218 48 -152 56 -219 56 -481 -1 -240 -9 -326 -51 -556 l-16 -86
-71 13 c-236 46 -629 104 -701 104 -31 0 -39 7 -82 68 -83 116 -233 308 -346
443 -59 71 -108 133 -108 138 0 10 225 196 310 256 228 162 491 292 654 325
70 14 163 11 206 -6z"/>
<path d="M4088 5839 c-116 -134 -317 -380 -318 -389 0 -3 196 -5 435 -5 239 0
435 2 435 4 0 13 -291 368 -381 465 l-55 59 -116 -134z m191 -163 c33 -41 61
-77 61 -80 0 -8 -255 -8 -263 0 -8 8 114 152 129 153 6 1 39 -32 73 -73z"/>
<path d="M3730 5130 c-63 -4 -134 -8 -158 -9 l-43 -1 -103 -157 c-184 -281
-352 -573 -504 -878 l-70 -140 103 -200 c197 -383 533 -936 588 -968 26 -14
1139 -18 1267 -4 l76 8 91 142 c230 357 573 975 573 1031 0 53 -369 706 -583
1032 l-86 132 -63 6 c-100 9 -961 15 -1088 6z m875 -140 c184 -10 191 -11 210
-35 50 -61 283 -444 390 -640 21 -38 50 -92 66 -120 15 -27 50 -92 77 -144
l50 -95 -60 -120 c-117 -234 -372 -676 -491 -853 -23 -34 -51 -64 -62 -67 -39
-11 -685 -19 -927 -11 l-248 7 -103 162 c-164 255 -273 443 -416 717 l-81 157
39 73 c21 41 66 128 101 194 95 182 210 381 339 583 107 168 118 182 146 183
16 1 89 5 160 8 202 12 600 12 810 1z"/>
<path d="M4036 4734 c-122 -29 -190 -59 -287 -125 -210 -142 -341 -390 -341
-649 -2 -563 556 -946 1086 -746 198 75 372 246 447 440 76 197 77 397 3 594
-91 242 -318 433 -576 486 -94 19 -252 19 -332 0z m306 -139 c351 -74 579
-428 502 -778 -77 -351 -435 -581 -781 -501 -246 56 -444 254 -499 500 -64
288 83 592 348 723 138 69 281 87 430 56z"/>
<path d="M5286 5072 c-3 -2 32 -63 77 -135 86 -141 234 -399 308 -534 24 -46
47 -83 50 -83 8 0 122 285 185 466 36 102 51 161 45 167 -22 22 -650 135 -665
119z m383 -198 c47 -8 91 -17 98 -19 8 -3 4 -24 -14 -72 -14 -37 -29 -83 -34
-100 -6 -18 -13 -33 -17 -33 -4 0 -24 31 -44 68 -21 37 -51 91 -68 120 -20 32
-27 52 -19 52 7 0 51 -7 98 -16z"/>
<path d="M2995 5059 c-196 -30 -534 -93 -540 -101 -12 -15 217 -628 234 -628
4 0 36 53 71 118 86 158 198 352 286 495 41 66 74 121 74 123 0 6 -58 3 -125
-7z m-155 -176 c0 -3 -25 -47 -55 -98 -30 -50 -57 -99 -61 -108 -3 -9 -10 -17
-14 -17 -7 0 -70 169 -70 188 0 5 37 16 83 24 98 18 117 20 117 11z"/>
<path d="M1955 4826 c-559 -187 -972 -458 -1101 -722 -38 -78 -44 -178 -15
-255 96 -254 427 -513 917 -717 121 -51 381 -139 387 -131 2 2 30 81 62 174
79 234 122 345 221 576 l85 199 -54 122 c-85 192 -165 396 -238 608 -53 155
-71 195 -85 197 -11 1 -91 -22 -179 -51z m148 -248 c26 -73 85 -227 132 -343
132 -323 121 -287 103 -326 -58 -124 -186 -447 -244 -616 -22 -62 -44 -113
-50 -113 -11 0 -164 54 -252 89 -30 12 -111 50 -180 85 -320 159 -535 334
-619 503 -31 63 -35 79 -29 119 24 175 299 402 713 589 106 48 351 142 374
144 4 1 27 -59 52 -131z"/>
<path d="M6252 4852 c-5 -15 -29 -83 -52 -152 -57 -168 -153 -412 -235 -596
l-66 -151 61 -133 c79 -171 215 -509 270 -672 32 -96 47 -128 59 -128 23 0
222 68 351 120 332 132 578 284 762 470 153 155 211 295 175 421 -30 103 -116
221 -232 321 -210 179 -515 340 -885 466 -202 68 -196 67 -208 34z m199 -181
c366 -126 664 -293 844 -475 110 -111 150 -175 149 -242 -3 -161 -314 -438
-679 -604 -185 -85 -392 -163 -399 -152 -2 4 -27 68 -54 142 -70 189 -122 318
-193 476 l-61 136 80 191 c75 180 174 434 201 520 7 20 16 37 20 37 4 0 45
-13 92 -29z"/>
<path d="M5661 3477 c-77 -146 -211 -380 -297 -518 -41 -66 -74 -124 -74 -129
0 -13 46 -8 285 31 243 39 386 70 392 85 9 24 -221 624 -243 631 -5 1 -33 -43
-63 -100z m93 -331 c20 -54 36 -100 34 -101 -5 -6 -221 -45 -224 -42 -2 2 29
60 68 130 40 69 76 123 79 119 3 -4 22 -51 43 -106z"/>
<path d="M2618 3403 c-81 -206 -173 -472 -166 -479 13 -13 277 -58 641 -109
20 -3 37 -2 37 1 0 4 -22 41 -49 83 -74 116 -229 380 -312 533 -41 76 -77 138
-80 138 -3 0 -36 -75 -71 -167z m106 -180 c4 -10 34 -64 68 -121 33 -56 59
-104 57 -107 -9 -9 -203 31 -207 43 -5 15 59 202 69 202 4 0 10 -8 13 -17z"/>
<path d="M5935 2614 c-198 -43 -517 -93 -730 -114 -60 -6 -120 -13 -132 -15
-12 -3 -42 -34 -69 -72 -158 -224 -279 -379 -451 -580 -62 -73 -113 -136 -113
-141 0 -15 248 -232 370 -323 401 -301 789 -443 1022 -375 263 76 393 576 312
1201 -22 168 -76 438 -89 441 -5 1 -59 -9 -120 -22z m29 -181 c51 -296 68
-521 55 -733 -16 -275 -85 -476 -191 -551 -30 -22 -42 -24 -143 -23 -90 1
-125 6 -195 29 -189 60 -426 196 -645 368 -173 136 -212 173 -200 190 6 8 73
93 150 188 78 96 185 236 240 311 l98 137 51 6 c289 32 545 70 706 105 63 14
67 13 74 -27z"/>
<path d="M2356 2603 c-22 -79 -71 -338 -88 -463 -17 -130 -17 -562 0 -660 44
-247 132 -404 260 -467 74 -36 207 -43 332 -18 210 42 482 175 743 363 94 68
308 246 359 299 l38 39 -73 79 c-124 135 -293 342 -430 525 -72 96 -131 176
-131 176 -1 1 -73 9 -161 18 -265 28 -534 68 -723 107 -115 23 -119 23 -126 2z
m293 -178 c140 -24 391 -57 536 -70 39 -4 78 -9 87 -11 9 -3 41 -37 70 -77 84
-116 274 -354 371 -465 49 -57 88 -104 86 -106 -2 -1 -36 -29 -74 -62 -258
-219 -539 -388 -780 -469 -99 -33 -121 -37 -220 -38 -87 -1 -117 2 -143 16
-71 39 -136 167 -168 334 -33 174 -20 610 27 853 21 111 29 131 47 126 9 -3
82 -17 161 -31z"/>
<path d="M3780 2442 c0 -12 179 -234 313 -386 l121 -139 59 64 c96 103 367
446 367 463 0 3 -193 6 -430 6 -236 0 -430 -3 -430 -8z m570 -147 c0 -4 -93
-118 -125 -153 -9 -10 -27 6 -84 73 l-72 85 140 0 c78 0 141 -2 141 -5z"/>
</g>
</svg>
